<?xml version="1.0" encoding="utf-8"?>
<!-- Generator: Adobe Illustrator 21.1.0, SVG Export Plug-In . SVG Version: 6.00 Build 0)  -->
<svg version="1.1" id="Capa_1" xmlns="http://www.w3.org/2000/svg" xmlns:xlink="http://www.w3.org/1999/xlink" x="0px" y="0px"
	 viewBox="0 0 32.4 41.2" style="enable-background:new 0 0 32.4 41.2;" xml:space="preserve">
<style type="text/css">
	.st0{fill:#FFFFFF;}
</style>
<path class="st0" d="M4.8,17.1c-1-0.7-1.7-1.7-1.9-2.9c-0.2-1.2,0-2.4,0.7-3.4c0.7-1,1.7-1.7,2.9-1.9c1.2-0.2,2.4,0,3.4,0.7l6.5,4.4
	c1,0.7,1.7,1.7,1.9,2.9c0.2,1.2,0,2.4-0.7,3.4c-0.2,0.3-0.1,0.7,0.2,0.9c0.3,0.2,0.7,0.1,0.9-0.2c0.9-1.3,1.2-2.8,0.9-4.3
	c-0.3-1.5-1.1-2.8-2.4-3.7l-6.5-4.4C9.3,7.7,7.8,7.4,6.3,7.7C4.8,8,3.5,8.9,2.6,10.1c-0.9,1.3-1.2,2.8-0.9,4.3
	C2,16,2.8,17.3,4.1,18.1l6.5,4.4c0.1,0.1,0.2,0.1,0.4,0.1c0.2,0,0.4-0.1,0.5-0.3c0.2-0.3,0.1-0.7-0.2-0.9L4.8,17.1z"/>
<path class="st0" d="M27.8,19l-6.5-4.4c-0.3-0.2-0.7-0.1-0.9,0.2s-0.1,0.7,0.2,0.9l6.5,4.4c1.4,1,2.1,2.6,1.9,4.3
	c-1.2-1.2-2.8-1.9-4.6-1.9c-2.3,0-4.3,1.2-5.5,3L15.5,23c-1-0.7-1.7-1.7-1.9-2.9c-0.2-1.2,0-2.4,0.7-3.4c0.2-0.3,0.1-0.7-0.2-0.9
	c-0.3-0.2-0.7-0.1-0.9,0.2c-0.9,1.3-1.2,2.8-0.9,4.3c0.3,1.5,1.1,2.8,2.4,3.7l3.6,2.4c-0.3,0.7-0.5,1.5-0.5,2.4
	c0,3.6,2.9,6.5,6.5,6.5s6.5-2.9,6.5-6.5c0-1.2-0.3-2.3-0.9-3.3C30.8,23.2,29.9,20.4,27.8,19z M24.4,34.1c-2.9,0-5.2-2.3-5.2-5.2
	s2.3-5.2,5.2-5.2s5.2,2.3,5.2,5.2S27.3,34.1,24.4,34.1z"/>
<path class="st0" d="M23.7,7.1C23.4,6.9,23,7,22.8,7.3l-1.7,2.6c-0.2,0.3-0.1,0.7,0.2,0.9c0.1,0.1,0.2,0.1,0.4,0.1
	c0.2,0,0.4-0.1,0.5-0.3L23.9,8C24.1,7.7,24,7.3,23.7,7.1z"/>
<path class="st0" d="M9.8,26.5L8,29.1c-0.2,0.3-0.1,0.7,0.2,0.9c0.1,0.1,0.2,0.1,0.4,0.1c0.2,0,0.4-0.1,0.5-0.3l1.7-2.6
	c0.2-0.3,0.1-0.7-0.2-0.9C10.3,26.2,10,26.3,9.8,26.5z"/>
<path class="st0" d="M18,5.5l-0.6,3c-0.1,0.3,0.2,0.7,0.5,0.8c0,0,0.1,0,0.1,0c0.3,0,0.6-0.2,0.6-0.5l0.6-3c0.1-0.3-0.2-0.7-0.5-0.8
	C18.4,5,18.1,5.2,18,5.5z"/>
<path class="st0" d="M14,27.8c-0.3-0.1-0.7,0.2-0.8,0.5l-0.6,3c-0.1,0.3,0.2,0.7,0.5,0.8c0,0,0.1,0,0.1,0c0.3,0,0.6-0.2,0.6-0.5
	l0.6-3C14.6,28.2,14.4,27.9,14,27.8z"/>
<path class="st0" d="M24.4,13.7c0.1,0,0.2,0,0.3-0.1l2.6-1.7c0.3-0.2,0.4-0.6,0.2-0.9c-0.2-0.3-0.6-0.4-0.9-0.2L24,12.5
	c-0.3,0.2-0.4,0.6-0.2,0.9C24,13.6,24.2,13.7,24.4,13.7z"/>
<path class="st0" d="M8,23.8c-0.2-0.3-0.6-0.4-0.9-0.2l-2.6,1.7c-0.3,0.2-0.4,0.6-0.2,0.9c0.1,0.2,0.3,0.3,0.5,0.3
	c0.1,0,0.2,0,0.3-0.1l2.6-1.7C8.2,24.4,8.2,24.1,8,23.8z"/>
<path class="st0" d="M25.8,27.2l-2.1,2.1L23,28.6c-0.2-0.2-0.6-0.2-0.9,0c-0.2,0.2-0.2,0.6,0,0.9l1.2,1.2c0.1,0.1,0.3,0.2,0.5,0.2
	c0.2,0,0.3-0.1,0.5-0.2l2.6-2.6c0.2-0.2,0.2-0.6,0-0.9S26,26.9,25.8,27.2z"/>
</svg>
