<?xml version="1.0" encoding="utf-8"?>
<!-- Generator: Adobe Illustrator 21.1.0, SVG Export Plug-In . SVG Version: 6.00 Build 0)  -->
<svg version="1.1" id="Capa_1" xmlns="http://www.w3.org/2000/svg" xmlns:xlink="http://www.w3.org/1999/xlink" x="0px" y="0px"
	 viewBox="0 0 32.4 41.2" style="enable-background:new 0 0 32.4 41.2;" xml:space="preserve">
<style type="text/css">
	.st0{fill:#FFFFFF;}
</style>
<path class="st0" d="M30.3,11v14.6c0,2.1-1.7,3.9-3.9,3.9h-10c-0.6,0-1.1-0.5-1.1-1.1c0-0.6,0.5-1.1,1.1-1.1h10
	c0.9,0,1.7-0.8,1.7-1.7V11c0-0.9-0.8-1.7-1.7-1.7H6c-0.9,0-1.7,0.8-1.7,1.7v14.6c0,0.9,0.8,1.7,1.7,1.7h0.5c0.6,0,1.1,0.5,1.1,1.1
	v2.6l3.4-3.4c0.4-0.4,1.1-0.4,1.5,0c0.4,0.4,0.4,1.1,0,1.5L8,33.7c-0.3,0.3-0.7,0.4-1,0.4c-0.2,0-0.4,0-0.6-0.1
	c-0.6-0.2-0.9-0.8-0.9-1.4v-3.3c-1.9-0.3-3.3-1.9-3.3-3.8V11c0-2.1,1.7-3.9,3.9-3.9h20.4C28.5,7.1,30.3,8.9,30.3,11z M17.6,18.4
	c0-0.8-0.6-1.4-1.4-1.4c-0.8,0-1.4,0.6-1.4,1.4s0.6,1.4,1.4,1.4C17,19.8,17.6,19.2,17.6,18.4z M21.9,18.4c0-0.8-0.6-1.4-1.4-1.4
	s-1.4,0.6-1.4,1.4s0.6,1.4,1.4,1.4S21.9,19.2,21.9,18.4z M10.5,18.4c0,0.8,0.6,1.4,1.4,1.4c0.8,0,1.4-0.6,1.4-1.4S12.6,17,11.8,17
	C11.1,17,10.5,17.6,10.5,18.4z"/>
</svg>
