<?xml version="1.0" encoding="utf-8"?><svg xmlns="http://www.w3.org/2000/svg" xmlns:xlink="http://www.w3.org/1999/xlink" width="1280" height="693" preserveAspectRatio="xMidYMid" viewBox="0 0 1280 693" style="z-index:1;margin-right:-2px;display:block;background-repeat-y:initial;background-repeat-x:initial;background-color:rgb(241, 242, 243);animation-play-state:paused" ><g transform="translate(640,346.5) scale(1,1) translate(-640,-346.5)" style="transform:matrix(1, 0, 0, 1, 0, 0);animation-play-state:paused" ><linearGradient id="lg-0.9520196161919765" x1="0" x2="1" y1="0" y2="0" style="animation-play-state:paused" ><stop stop-color="#53abdc" offset="0" style="animation-play-state:paused" ></stop>

  
<stop stop-color="#7f8ce7" offset="1" style="animation-play-state:paused" ></stop></linearGradient>
<path d="M 0 0 L 0 672.21 Q 128 665.64 256 639.645 T 512 607.08 T 768 574.515 T 1024 541.949 T 1280 509.384 L 1280 0 Z" fill="url(#lg-0.9520196161919765)" opacity="0.4" style="opacity:0.4;animation-play-state:paused" ></path>
<path d="M 0 0 L 0 672.21 Q 128 654.416 256 632.271 T 512 592.331 T 768 552.392 T 1024 512.453 T 1280 472.514 L 1280 0 Z" fill="url(#lg-0.9520196161919765)" opacity="0.4" style="opacity:0.4;animation-play-state:paused" ></path>
<path d="M 0 0 L 0 672.21 Q 128 682.997 256 637.492 T 512 602.774 T 768 568.056 T 1024 533.338 T 1280 498.62 L 1280 0 Z" fill="url(#lg-0.9520196161919765)" opacity="0.4" style="opacity:0.4;animation-play-state:paused" ></path></g></svg>