<?xml version="1.0" encoding="utf-8"?>
<!-- Generator: Adobe Illustrator 21.1.0, SVG Export Plug-In . SVG Version: 6.00 Build 0)  -->
<svg version="1.1" id="Capa_1" xmlns="http://www.w3.org/2000/svg" xmlns:xlink="http://www.w3.org/1999/xlink" x="0px" y="0px"
	 viewBox="0 0 1920 779" style="enable-background:new 0 0 1920 779;" xml:space="preserve">
<style type="text/css">
	.st0{fill:url(#SVGID_1_);}
	.st1{fill:#5E44BA;}
</style>
<g id="Capa_2_1_">
	
		<linearGradient id="SVGID_1_" gradientUnits="userSpaceOnUse" x1="355.425" y1="968.315" x2="1598.0751" y2="-274.335" gradientTransform="matrix(1 0 0 1 0 0.11)">
		<stop  offset="0" style="stop-color:#B963F7"/>
		<stop  offset="0.7006" style="stop-color:#6747C0"/>
		<stop  offset="0.9977" style="stop-color:#5E44BA"/>
	</linearGradient>
	<path class="st0" d="M-0.7,612.2l80,11.7c80,12.5,240,34.7,399.9,35.4c159.9-0.7,320-22.8,479.9-82.4
		c159.9-59.5,320-152.5,479.9-141.4c159.9,11,320,130.3,399.9,188.5l80,59V46.6h-80c-80,0-240,0-399.9,0s-319.8,0-479.8,0
		s-320,0-480.1,0s-320,0-399.9,0h-80L-0.7,612.2L-0.7,612.2z"/>
</g>
<g id="Capa_2">
	<path class="st1" d="M-3,557.2l80,11.6c80,12.3,240.3,34.1,400.3,34.8c160.2-0.7,320.3-22.5,480.5-81.2s320.3-150.2,480.5-139.3
		c160.2,10.9,320.3,128.3,400.3,185.7l80,58.1V0h-80c-80,0-240.2,0-400.3,0s-320,0-480.2,0S637.8,0,477.5,0S157.2,0,77.2,0H-3V557.2
		z"/>
</g>
</svg>
