<?xml version="1.0" encoding="utf-8"?>
<!-- Generator: Adobe Illustrator 21.1.0, SVG Export Plug-In . SVG Version: 6.00 Build 0)  -->
<svg version="1.1" id="Capa_1" xmlns="http://www.w3.org/2000/svg" xmlns:xlink="http://www.w3.org/1999/xlink" x="0px" y="0px"
	 viewBox="0 0 1280 693" style="enable-background:new 0 0 1280 693;" xml:space="preserve">
<style type="text/css">
	.st0{display:none;}
	.st1{display:inline;fill:none;}
	.st2{display:inline;fill:#5E44BA;}
	.st3{display:inline;opacity:0.4;fill:#5E44BA;enable-background:new    ;}
	.st4{opacity:0.5;}
	.st5{fill:url(#SVGID_1_);}
</style>
<g id="Capa_1_1_" class="st0">
	<path class="st1" d="M0,0"/>
	<path class="st2" d="M1,1v572c85.1-3.7,484-92,757.2-115.4c93.2,25,142.3,39.4,265.1,4.5s55.6-161.4,255.6-176.5V1H1z"/>
	<path class="st3" d="M-4-2v485c86.3-8.6,172.7-18.2,259-28.8c86.3-10.7,172.7-20.2,259-28.8s172.7-18.2,259-28.8
		c86.3-10.7,172.7-20.2,259-28.8c86.3-8.6,172.7-18.2,259-28.8V-2H-4z"/>
	<path class="st2" d="M-2,0v314c85.4,3.4,171-2,256.4-16.2s171-19.6,256.4-16.2s171-2,256.4-16.2s171-19.6,256.4-16.2
		c85.4,3.4,171-2,256.4-16.2V0H-2z"/>
	<path class="st2" d="M0,0"/>
	<path class="st2" d="M495,652"/>
</g>
<g id="Capa_2_1_" class="st4">
	<linearGradient id="SVGID_1_" gradientUnits="userSpaceOnUse" x1="-11.5045" y1="303.4753" x2="1283.5582" y2="303.4753">
		<stop  offset="0" style="stop-color:#46B4D8"/>
		<stop  offset="0.175" style="stop-color:#49A7D4"/>
		<stop  offset="0.4999" style="stop-color:#5084CB"/>
		<stop  offset="0.936" style="stop-color:#5C4DBC"/>
		<stop  offset="1" style="stop-color:#5E44BA"/>
	</linearGradient>
	<path class="st5" d="M637.2,604.1c107.8,0,215.4,0,323.1,0s215.5,0,269.4,0h53.9l-4.1-606C1018,100.3,672.8,197.1,262.1,215
		c-94.6,4.1-184.9,3.7-270.6-0.1C-8.8,344.6-91.9,650.6,637.2,604.1z"/>
</g>
</svg>
