<?xml version="1.0" encoding="utf-8"?>
<!-- Generator: Adobe Illustrator 21.1.0, SVG Export Plug-In . SVG Version: 6.00 Build 0)  -->
<svg version="1.1" id="Capa_1" xmlns="http://www.w3.org/2000/svg" xmlns:xlink="http://www.w3.org/1999/xlink" x="0px" y="0px"
	 viewBox="0 0 1280 693" style="enable-background:new 0 0 1280 693;" xml:space="preserve">
<style type="text/css">
	.st0{display:none;}
	.st1{display:inline;fill:none;}
	.st2{display:inline;fill:#5E44BA;}
	.st3{display:inline;opacity:0.4;fill:#5E44BA;enable-background:new    ;}
	.st4{fill:url(#SVGID_1_);stroke:#000000;stroke-width:0.25;stroke-linecap:square;stroke-linejoin:round;stroke-miterlimit:10;}
	.st5{fill:#5E44BA;}
</style>
<g id="Capa_1_1_" class="st0">
	<path class="st1" d="M0,0"/>
	<path class="st2" d="M1,1v572c85.1-3.7,484-92,757.2-115.4c93.2,25,142.3,39.4,265.1,4.5s55.6-161.4,255.6-176.5V1H1z"/>
	<path class="st3" d="M-4-2v485c86.3-8.6,172.7-18.2,259-28.8c86.3-10.7,172.7-20.2,259-28.8s172.7-18.2,259-28.8
		c86.3-10.7,172.7-20.2,259-28.8c86.3-8.6,172.7-18.2,259-28.8V-2H-4z"/>
	<path class="st2" d="M-2,0v314c85.4,3.4,171-2,256.4-16.2s171-19.6,256.4-16.2s171-2,256.4-16.2s171-19.6,256.4-16.2
		c85.4,3.4,171-2,256.4-16.2V0H-2z"/>
	<path class="st2" d="M0,0"/>
	<path class="st2" d="M495,652"/>
</g>
<g id="Capa_2_1_">
	<linearGradient id="SVGID_1_" gradientUnits="userSpaceOnUse" x1="206.8995" y1="760.8349" x2="1102.3965" y2="-134.662">
		<stop  offset="0" style="stop-color:#B963F7"/>
		<stop  offset="0.1335" style="stop-color:#A95EEC"/>
		<stop  offset="0.5143" style="stop-color:#8050D1"/>
		<stop  offset="0.8155" style="stop-color:#6747C0"/>
		<stop  offset="0.9977" style="stop-color:#5E44BA"/>
	</linearGradient>
	<path class="st4" d="M-1.7,552.3l53.4,10.6c53.4,11.3,160.1,31.3,266.8,31.9c106.7-0.6,213.5-20.6,320.2-74.3
		s213.5-137.6,320.2-127.6c106.7,9.9,213.5,117.6,266.8,170.1l53.4,53.2V42h-53.4c-53.4,0-160.1,0-266.8,0s-213.4,0-320.1,0
		s-213.5,0-320.3,0s-213.5,0-266.8,0H-1.7V552.3z"/>
</g>
<g id="Capa_2">
	<path class="st5" d="M1,518.2L54.2,529c53.2,11.5,159.8,31.8,266.2,32.4c106.5-0.6,213-20.9,319.5-75.5s213-139.7,319.5-129.6
		s213,119.4,266.2,172.7l53.2,54V0h-53.2c-53.2,0-159.7,0-266.2,0S746.6,0,640.1,0s-213,0-319.6,0s-213,0-266.2,0H1V518.2z"/>
</g>
</svg>
