<?xml version="1.0" encoding="utf-8"?>
<!-- Generator: Adobe Illustrator 21.1.0, SVG Export Plug-In . SVG Version: 6.00 Build 0)  -->
<svg version="1.1" id="Capa_1" xmlns="http://www.w3.org/2000/svg" xmlns:xlink="http://www.w3.org/1999/xlink" x="0px" y="0px"
	 viewBox="0 0 1920 1080" style="enable-background:new 0 0 1920 1080;" xml:space="preserve">
<style type="text/css">
	.st0{fill:url(#SVGID_1_);}
	.st1{fill:#5E44BA;}
</style>
<g id="Capa_2_1_">
	
		<linearGradient id="SVGID_1_" gradientUnits="userSpaceOnUse" x1="355.5268" y1="111.7103" x2="1598.1868" y2="1354.3701" gradientTransform="matrix(1 0 0 -1 0 1080.11)">
		<stop  offset="0" style="stop-color:#B963F7"/>
		<stop  offset="0.1335" style="stop-color:#A95EEC"/>
		<stop  offset="0.5143" style="stop-color:#8050D1"/>
		<stop  offset="0.8155" style="stop-color:#6747C0"/>
		<stop  offset="0.9977" style="stop-color:#5E44BA"/>
	</linearGradient>
	<path class="st0" d="M-0.7,612.2l80,11.7c80,12.5,240,34.7,399.9,35.4c159.9-0.7,320-22.8,479.9-82.4
		c159.9-59.5,320-152.5,479.9-141.4c159.9,11,320,130.3,399.9,188.5l80,59V46.6h-80c-80,0-240,0-399.9,0s-319.8,0-479.8,0
		s-320,0-480.1,0s-320,0-399.9,0h-80V612.2z"/>
</g>
<g id="Capa_2">
	<path class="st1" d="M-3,574.4l80,12c80,12.7,240.3,35.2,400.3,35.9c160.2-0.7,320.3-23.2,480.5-83.7s320.3-154.8,480.5-143.6
		s320.3,132.3,400.3,191.4l80,59.9V0h-80c-80,0-240.2,0-400.3,0s-320,0-480.2,0S637.8,0,477.5,0S157.2,0,77.2,0H-3V574.4z"/>
</g>
</svg>
