<?xml version="1.0" encoding="utf-8"?>
<!-- Generator: Adobe Illustrator 21.1.0, SVG Export Plug-In . SVG Version: 6.00 Build 0)  -->
<svg version="1.1" id="Capa_1" xmlns="http://www.w3.org/2000/svg" xmlns:xlink="http://www.w3.org/1999/xlink" x="0px" y="0px"
	 viewBox="0 0 512 512" style="enable-background:new 0 0 512 512;" xml:space="preserve">
<style type="text/css">
	.st0{fill:#9603FF;}
</style>
<path class="st0" d="M504,216c0-3.4-2.1-6.4-5.2-7.5L399.2,172l99.5-36.5c4.1-1.5,6.3-6.1,4.8-10.3c-0.8-2.2-2.5-3.9-4.8-4.8
	l-240-88c-1.8-0.7-3.7-0.7-5.5,0l-240,88c-4.1,1.5-6.3,6.1-4.8,10.3c0.8,2.2,2.5,3.9,4.8,4.8l99.5,36.5l-99.5,36.5
	c-4.1,1.5-6.3,6.1-4.8,10.3c0.8,2.2,2.5,3.9,4.8,4.8l99.5,36.5l-99.5,36.5c-4.1,1.5-6.3,6.1-4.8,10.3c0.8,2.2,2.5,3.9,4.8,4.8
	l99.5,36.5l-99.5,36.5c-4.1,1.5-6.3,6.1-4.8,10.3c0.8,2.2,2.5,3.9,4.8,4.8l240,88c1.8,0.7,3.7,0.7,5.5,0l240-88
	c4.1-1.5,6.3-6.1,4.8-10.3c-0.8-2.2-2.5-3.9-4.8-4.8L399.2,348l99.5-36.5c4.1-1.5,6.3-6.1,4.8-10.3c-0.8-2.2-2.5-3.9-4.8-4.8
	L399.2,260l99.5-36.5C501.9,222.4,504,219.4,504,216z M39.2,128L256,48.5L472.8,128L256,207.5l-117.3-43L39.2,128z M472.8,392
	L256,471.5L39.2,392l96.8-35.5l117.2,43c1.8,0.7,3.7,0.7,5.5,0l117.2-43L472.8,392z M472.8,304L256,383.5L39.2,304l96.8-35.5
	l117.2,43c1.8,0.7,3.7,0.7,5.5,0l117.2-43L472.8,304z M256,295.5L39.2,216l96.8-35.5l117.2,43c1.8,0.7,3.7,0.7,5.5,0l117.2-43
	l96.8,35.5L256,295.5z"/>
</svg>
