<?xml version="1.0" encoding="utf-8"?>
<!-- Generator: Adobe Illustrator 21.1.0, SVG Export Plug-In . SVG Version: 6.00 Build 0)  -->
<svg version="1.1" id="Capa_1" xmlns="http://www.w3.org/2000/svg" xmlns:xlink="http://www.w3.org/1999/xlink" x="0px" y="0px"
	 viewBox="0 0 400 400" style="enable-background:new 0 0 400 400;" xml:space="preserve">
<style type="text/css">
	.st0{fill:#0DDDC9;}
</style>
<path class="st0" d="M320,178.7c0-1.6-1-3.1-2.5-3.6l-48.2-17.7l48.1-17.7c2-0.7,3-3,2.3-5c-0.4-1.1-1.2-1.9-2.3-2.3L201.3,89.8
	c-0.9-0.3-1.8-0.3-2.7,0L82.6,132.4c-2,0.7-3,3-2.3,5c0.4,1.1,1.2,1.9,2.3,2.3l48.1,17.7L82.6,175c-2,0.7-3,3-2.3,5
	c0.4,1.1,1.2,1.9,2.3,2.3l48.1,17.7l-48.1,17.7c-2,0.7-3,3-2.3,5c0.4,1.1,1.2,1.9,2.3,2.3l48.1,17.7l-48.1,17.7c-2,0.7-3,3-2.3,5
	c0.4,1.1,1.2,1.9,2.3,2.3l116.1,42.6c0.9,0.3,1.8,0.3,2.7,0l116.1-42.6c2-0.7,3-3,2.3-5c-0.4-1.1-1.2-1.9-2.3-2.3l-48.1-17.8
	l48.1-17.7c2-0.7,3-3,2.3-5c-0.4-1.1-1.2-1.9-2.3-2.3L269.3,200l48.1-17.7C319,181.8,320,180.3,320,178.7z M95.1,136.1L200,97.6
	l104.9,38.5L200,174.6l-56.7-20.8L95.1,136.1z M304.9,263.8L200,302.3L95.1,263.8l46.8-17.2l56.7,20.8c0.9,0.3,1.8,0.3,2.7,0
	l56.7-20.8L304.9,263.8z M304.9,221.2L200,259.7L95.1,221.2l46.8-17.2l56.7,20.8c0.9,0.3,1.8,0.3,2.7,0l56.7-20.8L304.9,221.2z
	 M200,217.1L95.1,178.7l46.8-17.2l56.7,20.8c0.9,0.3,1.8,0.3,2.7,0l56.7-20.8l46.8,17.2L200,217.1z"/>
</svg>
