<?xml version="1.0" encoding="utf-8"?>
<!-- Generator: Adobe Illustrator 21.1.0, SVG Export Plug-In . SVG Version: 6.00 Build 0)  -->
<svg version="1.1" xmlns="http://www.w3.org/2000/svg" xmlns:xlink="http://www.w3.org/1999/xlink" x="0px" y="0px"
	 viewBox="0 0 1920 1080" style="enable-background:new 0 0 1920 1080;" xml:space="preserve">
<style type="text/css">
	.st0{display:none;}
	.st1{display:inline;fill:#B963F7;}
	.st2{display:inline;}
	.st3{fill:#B963F7;}
	.st4{fill:url(#SVGID_1_);}
	.st5{display:inline;fill:url(#SVGID_2_);}
	.st6{fill:url(#SVGID_3_);}
</style>
<g id="Capa_1" class="st0">
	<g id="Capa_2_1_">
		<path class="st1" d="M3,1084c160.1,0,320.2,0,480.2,0c160.1,0,320.3,0,480.4,0s320,0,480.1,0s320.2,0,400.2,0h80V264l-80,76
			c-80,75-240.1,228.7-400.2,242.9s-320.2-105.5-480.2-182.3S643.3,295.2,483.2,294.4c-160,0.8-320.1,29.4-400.2,45.6L3,355.1V1084z
			"/>
	</g>
	<g id="Capa_2_3_" class="st2">
		<path class="st3" d="M-1.3,1095.9c159.8,0,319.6,0,479.3,0c159.8,0,319.7,0,479.5,0s319.4,0,479.2,0c159.8,0,319.6,0,399.4,0h79.8
			V298.8c-26.3,24.5-76.5,67.5-147.6,104c-342.5,175.7-726-144.7-1290.2-74.5c-139.2,17.3-250.7,52.7-326.4,81.7
			c-50.1,18.5-100.2,37-150.3,55.6C0.5,675.6-0.4,885.8-1.3,1095.9z"/>
	</g>
	<g id="Capa_2_2_" class="st2">
		
			<linearGradient id="SVGID_1_" gradientUnits="userSpaceOnUse" x1="958.9631" y1="-1.8385" x2="958.9631" y2="699.4314" gradientTransform="matrix(1 0 0 -1 0 1080)">
			<stop  offset="0" style="stop-color:#B963F7"/>
			<stop  offset="3.452799e-02" style="stop-color:#B261F2"/>
			<stop  offset="0.2823" style="stop-color:#8551D4"/>
			<stop  offset="0.4736" style="stop-color:#6848C1"/>
			<stop  offset="0.5842" style="stop-color:#5E44BA"/>
		</linearGradient>
		<path class="st4" d="M2,1081.8c159.5,0,319,0,478.5,0c159.5,0,319.1,0,478.7,0s318.8,0,478.4,0s319,0,398.7,0h79.7V380.6
			c-26.3,21.6-76.4,59.4-147.4,91.5c-356.3,161.1-686.9-71.7-1288-65.6c-88.5,0.9-227.2,7.4-398.7,38.9L2,458.6V1081.8z"/>
	</g>
	<linearGradient id="SVGID_2_" gradientUnits="userSpaceOnUse" x1="462" y1="766" x2="462" y2="766">
		<stop  offset="0" style="stop-color:#B963F7"/>
		<stop  offset="3.452799e-02" style="stop-color:#B261F2"/>
		<stop  offset="0.2823" style="stop-color:#8551D4"/>
		<stop  offset="0.4736" style="stop-color:#6848C1"/>
		<stop  offset="0.5842" style="stop-color:#5E44BA"/>
	</linearGradient>
	<path class="st5" d="M462,766"/>
</g>
<g id="Capa_2">
	<g id="Capa_2_5_">
		<path class="st3" d="M1924.9,1.8c-159.8,0-319.6,0-479.3,0c-159.8,0-319.7,0-479.5,0s-319.4,0-479.2,0s-319.6,0-399.4,0H7.7v797.1
			c26.3-24.5,76.5-67.5,147.6-104c342.5-175.7,726,144.7,1290.2,74.5c139.2-17.3,250.7-52.7,326.4-81.7
			c50.1-18.5,100.2-37,150.3-55.6C1923.1,422.1,1924,211.9,1924.9,1.8z"/>
	</g>
	<g id="Capa_2_4_">
		
			<linearGradient id="SVGID_3_" gradientUnits="userSpaceOnUse" x1="1163.9745" y1="-22.8544" x2="1163.9745" y2="678.4155" gradientTransform="matrix(-1 0 0 1 2128.6492 38.702)">
			<stop  offset="0" style="stop-color:#B963F7"/>
			<stop  offset="3.452799e-02" style="stop-color:#B261F2"/>
			<stop  offset="0.2823" style="stop-color:#8551D4"/>
			<stop  offset="0.4736" style="stop-color:#6848C1"/>
			<stop  offset="0.5842" style="stop-color:#5E44BA"/>
		</linearGradient>
		<path class="st6" d="M1921.6,15.8c-159.5,0-319,0-478.5,0c-159.5,0-319.1,0-478.7,0s-318.8,0-478.4,0s-319,0-398.7,0H7.7v701.3
			c26.3-21.6,76.4-59.4,147.4-91.5c356.3-161.1,686.9,71.7,1288,65.6c88.5-0.9,227.2-7.4,398.7-38.9l79.8-13.1V15.8z"/>
	</g>
</g>
</svg>
