<?xml version="1.0" encoding="utf-8"?>
<!-- Generator: Adobe Illustrator 21.1.0, SVG Export Plug-In . SVG Version: 6.00 Build 0)  -->
<svg version="1.1" id="Capa_1" xmlns="http://www.w3.org/2000/svg" xmlns:xlink="http://www.w3.org/1999/xlink" x="0px" y="0px"
	 viewBox="0 0 512 512" style="enable-background:new 0 0 512 512;" xml:space="preserve">
<style type="text/css">
	.st0{fill:#9603FF;}
</style>
<g>
	<path class="st0" d="M490.6,421.1h-31.1V168.3c0-15.1-12.2-27.2-27.2-27.2h-27.2V47.8c0-4.3-3.5-7.8-7.8-7.8h-280
		c-4.3,0-7.8,3.5-7.8,7.8v93.3H82.3c-15.1,0-27.2,12.2-27.2,27.2v252.8H24c-4.3,0-7.8,3.5-7.8,7.8v27.2c0,15.1,12.2,27.2,27.2,27.2
		h427.7c15.1,0,27.2-12.2,27.2-27.2v-27.2C498.4,424.6,494.9,421.1,490.6,421.1z M405.1,180h15.6v217.8h-15.6V180z M125.1,55.6
		h264.4v342.2H125.1V55.6z M70.6,168.3c0-6.4,5.2-11.7,11.7-11.7h27.2v7.8H86.2c-4.3,0-7.8,3.5-7.8,7.8v233.3c0,4.3,3.5,7.8,7.8,7.8
		h342.2c4.3,0,7.8-3.5,7.8-7.8V172.2c0-4.3-3.5-7.8-7.8-7.8h-23.3v-7.8h27.2c6.4,0,11.7,5.2,11.7,11.7v252.8H70.6V168.3z M109.5,180
		v217.8H94V180H109.5z M288.4,436.6v7.8h-62.2v-7.8H288.4z M482.8,456.1c0,6.4-5.2,11.7-11.7,11.7H43.4c-6.4,0-11.7-5.2-11.7-11.7
		v-19.4h178.9v15.6c0,4.3,3.5,7.8,7.8,7.8h77.8c4.3,0,7.8-3.5,7.8-7.8v-15.6h178.9V456.1z"/>
	<path class="st0" d="M94,444.4H47.3c-4.3,0-7.8,3.5-7.8,7.8s3.5,7.8,7.8,7.8H94c4.3,0,7.8-3.5,7.8-7.8S98.3,444.4,94,444.4z"/>
	<path class="st0" d="M125.1,444.4h-7.8c-4.3,0-7.8,3.5-7.8,7.8s3.5,7.8,7.8,7.8h7.8c4.3,0,7.8-3.5,7.8-7.8S129.4,444.4,125.1,444.4
		z"/>
	<path class="st0" d="M205.4,224.6c0.4,0.4,0.8,0.7,1.3,0.9c30.1,22.3,71.3,22.3,101.4,0c0.4-0.3,0.8-0.6,1.2-0.9
		c37.5-28.7,44.8-82.3,16.1-119.9c-28.7-37.6-82.3-44.8-120-16.1s-44.8,82.3-16.1,119.9C193.9,214.6,199.4,219.9,205.4,224.6
		L205.4,224.6z M218.6,215c2.1-21.4,21.3-36.9,42.6-34.8c8.9,0.9,17.2,4.9,23.5,11.2s10.3,14.7,11.2,23.5
		C272.6,230.5,242,230.5,218.6,215L218.6,215z M257.3,156.7c-8.6,0-15.6-7-15.6-15.6s7-15.6,15.6-15.6c8.6,0,15.6,7,15.6,15.6
		S265.9,156.7,257.3,156.7z M257.3,86.7c38.6,0,70,31.3,70,69.9c0,17.2-6.3,33.8-17.8,46.7c-5.2-17-18.3-30.5-35.2-36.1
		c14.4-9.4,18.5-28.7,9-43.1s-28.7-18.5-43.1-9c-14.4,9.4-18.5,28.7-9,43.1c2.3,3.6,5.4,6.7,9.1,9c-16.9,5.5-30,19.1-35.2,36.2
		c-25.8-28.8-23.3-73,5.4-98.8C223.5,93,240.1,86.7,257.3,86.7z"/>
	<path class="st0" d="M179.5,304.4h155.5c4.3,0,7.8-3.5,7.8-7.8v-31.1c0-4.3-3.5-7.8-7.8-7.8H179.5c-4.3,0-7.8,3.5-7.8,7.8v31.1
		C171.7,300.9,175.2,304.4,179.5,304.4z M187.3,273.3h140v15.6h-140V273.3z"/>
	<path class="st0" d="M234,320c-4.3,0-7.8,3.5-7.8,7.8s3.5,7.8,7.8,7.8h46.7c4.3,0,7.8-3.5,7.8-7.8s-3.5-7.8-7.8-7.8H234z"/>
	<path class="st0" d="M179.5,358.9h155.5c4.3,0,7.8-3.5,7.8-7.8s-3.5-7.8-7.8-7.8H179.5c-4.3,0-7.8,3.5-7.8,7.8
		S175.2,358.9,179.5,358.9z"/>
	<path class="st0" d="M304,366.6h-93.3c-4.3,0-7.8,3.5-7.8,7.8s3.5,7.8,7.8,7.8H304c4.3,0,7.8-3.5,7.8-7.8S308.2,366.6,304,366.6z"
		/>
</g>
</svg>
