<?xml version="1.0" encoding="utf-8"?>
<!-- Generator: Adobe Illustrator 21.1.0, SVG Export Plug-In . SVG Version: 6.00 Build 0)  -->
<svg version="1.1" id="Capa_1" xmlns="http://www.w3.org/2000/svg" xmlns:xlink="http://www.w3.org/1999/xlink" x="0px" y="0px"
	 viewBox="0 0 22.5 28.6" style="enable-background:new 0 0 22.5 28.6;" xml:space="preserve">
<style type="text/css">
	.st0{fill:#FFFFFF;}
</style>
<path class="st0" d="M3.6,3.4v2.2v14.9v3.1C3.6,23.9,3.8,24,4,24h14c0.2,0,0.3-0.1,0.3-0.3v-3.1V5.7V3.4c0-0.2-0.1-0.3-0.3-0.3H4
	C3.8,3.1,3.6,3.3,3.6,3.4z M4.3,3.8h13.3v1.6H4.3V3.8z M4.3,6h13.3v14.3H4.3V6z M4.3,20.9h13.3v2.5H4.3V20.9z"/>
<path class="st0" d="M11.9,4.2H10c-0.2,0-0.3,0.1-0.3,0.3S9.8,4.9,10,4.9h1.9c0.2,0,0.3-0.1,0.3-0.3S12.1,4.2,11.9,4.2z"/>
<path class="st0" d="M10.9,21.5c-0.4,0-0.7,0.3-0.7,0.7c0,0.4,0.3,0.7,0.7,0.7c0.4,0,0.7-0.3,0.7-0.7C11.6,21.8,11.3,21.5,10.9,21.5
	z"/>
<path class="st0" d="M10.9,12.5c1,0,1.9-1.3,1.9-2.3c0-1-0.8-1.9-1.9-1.9c-1,0-1.9,0.8-1.9,1.9C9.1,11.2,9.9,12.5,10.9,12.5z
	 M10.9,8.9c0.7,0,1.3,0.6,1.3,1.3c0,0.7-0.6,1.7-1.3,1.7c-0.6,0-1.3-1-1.3-1.7C9.7,9.5,10.3,8.9,10.9,8.9z"/>
<path class="st0" d="M7.6,14.8c0.8,0.9,2,1.5,3.4,1.5c1.3,0,2.5-0.6,3.4-1.5c0,0,0,0,0-0.1c0.7-0.8,1.2-1.9,1.2-3.1
	c0-2.5-2.1-4.6-4.6-4.6s-4.6,2.1-4.6,4.6C6.3,12.9,6.8,14,7.6,14.8C7.5,14.8,7.6,14.8,7.6,14.8z M13.8,14.5
	c-0.2,0.2-0.5,0.4-0.8,0.6v-0.6c0-0.2-0.1-0.3-0.3-0.3c-0.2,0-0.3,0.1-0.3,0.3v0.9c-0.5,0.2-0.9,0.3-1.5,0.3c-0.5,0-1-0.1-1.4-0.3
	v-0.9c0-0.2-0.1-0.3-0.3-0.3c-0.2,0-0.3,0.1-0.3,0.3v0.6c-0.3-0.2-0.5-0.4-0.8-0.6v-0.2c0-0.7,0.5-1.2,1.2-1.2h0.4
	c0.4,0.3,0.8,0.5,1.3,0.5c0.5,0,0.9-0.2,1.3-0.5h0.4c0.7,0,1.2,0.5,1.2,1.2V14.5z M10.9,7.7c2.2,0,4,1.8,4,4c0,0.7-0.2,1.4-0.6,2
	c-0.2-0.8-0.9-1.3-1.8-1.3h-0.5c-0.1,0-0.2,0-0.2,0.1c-0.5,0.5-1.4,0.5-1.9,0c-0.1-0.1-0.1-0.1-0.2-0.1H9.3c-0.8,0-1.5,0.6-1.7,1.3
	c-0.4-0.6-0.6-1.3-0.6-2C7,9.5,8.8,7.7,10.9,7.7z"/>
<path class="st0" d="M16,17.2H5.9c-0.2,0-0.3,0.1-0.3,0.3v1.4c0,0.2,0.1,0.3,0.3,0.3H16c0.2,0,0.3-0.1,0.3-0.3v-1.4
	C16.3,17.3,16.2,17.2,16,17.2z M15.7,18.6H6.2v-0.8h9.5V18.6z"/>
</svg>
