<?xml version="1.0" encoding="utf-8"?>
<!-- Generator: Adobe Illustrator 21.1.0, SVG Export Plug-In . SVG Version: 6.00 Build 0)  -->
<svg version="1.1" id="Capa_1" xmlns="http://www.w3.org/2000/svg" xmlns:xlink="http://www.w3.org/1999/xlink" x="0px" y="0px"
	 viewBox="0 0 400 400" style="enable-background:new 0 0 400 400;" xml:space="preserve">
<style type="text/css">
	.st0{fill:#0DDDC9;}
</style>
<g>
	<path class="st0" d="M316.2,279.7h-15.5V153.4c0-7.5-6.1-13.6-13.5-13.6h-13.5V93.2c0-2.1-1.7-3.9-3.9-3.9H130.3
		c-2.1,0-3.9,1.7-3.9,3.9v46.6h-13.5c-7.5,0-13.5,6.1-13.5,13.6v126.3H83.9c-2.1,0-3.9,1.7-3.9,3.9v13.6c0,7.5,6.1,13.6,13.5,13.6
		h212.9c7.5,0,13.5-6.1,13.5-13.6v-13.6C320,281.4,318.3,279.7,316.2,279.7z M273.6,159.2h7.8V268h-7.8V159.2z M134.2,97.1h131.6
		v171H134.2V97.1z M107.1,153.4c0-3.2,2.6-5.8,5.8-5.8h13.5v3.9h-11.6c-2.1,0-3.9,1.7-3.9,3.9v116.6c0,2.1,1.7,3.9,3.9,3.9h170.4
		c2.1,0,3.9-1.7,3.9-3.9V155.3c0-2.1-1.7-3.9-3.9-3.9h-11.6v-3.9h13.5c3.2,0,5.8,2.6,5.8,5.8v126.3H107.1V153.4z M126.4,159.2V268
		h-7.7V159.2H126.4z M215.5,287.4v3.9h-31v-3.9H215.5z M312.3,297.2c0,3.2-2.6,5.8-5.8,5.8H93.5c-3.2,0-5.8-2.6-5.8-5.8v-9.7h89.1
		v7.8c0,2.1,1.7,3.9,3.9,3.9h38.7c2.1,0,3.9-1.7,3.9-3.9v-7.8h89.1L312.3,297.2L312.3,297.2z"/>
	<path class="st0" d="M118.7,291.3H95.5c-2.1,0-3.9,1.7-3.9,3.9s1.7,3.9,3.9,3.9h23.2c2.1,0,3.9-1.7,3.9-3.9
		S120.9,291.3,118.7,291.3z"/>
	<path class="st0" d="M134.2,291.3h-3.9c-2.1,0-3.9,1.7-3.9,3.9s1.7,3.9,3.9,3.9h3.9c2.1,0,3.9-1.7,3.9-3.9S136.4,291.3,134.2,291.3
		z"/>
	<path class="st0" d="M174.2,181.5c0.2,0.2,0.4,0.3,0.6,0.4c15,11.1,35.5,11.1,50.5,0c0.2-0.1,0.4-0.3,0.6-0.4
		c18.7-14.3,22.3-41.1,8-59.9s-41-22.4-59.7-8s-22.3,41.1-8,59.9C168.5,176.5,171.2,179.1,174.2,181.5L174.2,181.5z M180.8,176.7
		c1-10.7,10.6-18.4,21.2-17.4c4.4,0.4,8.6,2.4,11.7,5.6c3.1,3.1,5.1,7.3,5.6,11.7C207.6,184.4,192.4,184.4,180.8,176.7L180.8,176.7z
		 M200,147.6c-4.3,0-7.8-3.5-7.8-7.8c0-4.3,3.5-7.8,7.8-7.8c4.3,0,7.8,3.5,7.8,7.8S204.3,147.6,200,147.6z M200,112.6
		c19.2,0,34.8,15.6,34.8,34.9c0,8.6-3.1,16.9-8.9,23.3c-2.6-8.5-9.1-15.2-17.5-18c7.2-4.7,9.2-14.3,4.5-21.5
		c-4.7-7.2-14.3-9.2-21.5-4.5c-7.2,4.7-9.2,14.3-4.5,21.5c1.1,1.8,2.7,3.3,4.5,4.5c-8.4,2.7-14.9,9.5-17.5,18.1
		c-12.8-14.4-11.6-36.5,2.7-49.4C183.2,115.7,191.5,112.6,200,112.6z"/>
	<path class="st0" d="M161.3,221.4h77.4c2.1,0,3.9-1.7,3.9-3.9v-15.5c0-2.1-1.7-3.9-3.9-3.9h-77.4c-2.1,0-3.9,1.7-3.9,3.9v15.5
		C157.4,219.6,159.2,221.4,161.3,221.4z M165.2,205.8h69.7v7.8h-69.7V205.8L165.2,205.8z"/>
	<path class="st0" d="M188.4,229.2c-2.1,0-3.9,1.7-3.9,3.9s1.7,3.9,3.9,3.9h23.2c2.1,0,3.9-1.7,3.9-3.9s-1.7-3.9-3.9-3.9H188.4z"/>
	<path class="st0" d="M161.3,248.6h77.4c2.1,0,3.9-1.7,3.9-3.9s-1.7-3.9-3.9-3.9h-77.4c-2.1,0-3.9,1.7-3.9,3.9
		S159.2,248.6,161.3,248.6z"/>
	<path class="st0" d="M223.3,252.4h-46.4c-2.1,0-3.9,1.7-3.9,3.9c0,2.1,1.7,3.9,3.9,3.9h46.4c2.1,0,3.9-1.7,3.9-3.9
		C227.2,254.2,225.4,252.4,223.3,252.4z"/>
</g>
</svg>
