<?xml version="1.0" encoding="utf-8"?>
<!-- Generator: Adobe Illustrator 21.1.0, SVG Export Plug-In . SVG Version: 6.00 Build 0)  -->
<svg version="1.1" id="Capa_1" xmlns="http://www.w3.org/2000/svg" xmlns:xlink="http://www.w3.org/1999/xlink" x="0px" y="0px"
	 viewBox="0 0 512 512" style="enable-background:new 0 0 512 512;" xml:space="preserve">
<style type="text/css">
	.st0{fill:#9603FF;}
</style>
<g>
	<path class="st0" d="M476,56H36C20.5,56,8,68.5,8,84v344c0,15.5,12.5,28,28,28h440c15.5,0,28-12.5,28-28V84
		C504,68.5,491.5,56,476,56z M488,428c0,6.6-5.4,12-12,12H36c-6.6,0-12-5.4-12-12V120h464V428z M488,104H24V84c0-6.6,5.4-12,12-12
		h440c6.6,0,12,5.4,12,12V104z"/>
	<path class="st0" d="M384,352h-40v-96.7l19.1,15c3.4,2.8,8.5,2.3,11.3-1.1c2.8-3.4,2.3-8.5-1.1-11.3c-0.1-0.1-0.2-0.2-0.3-0.2
		l-32-25.1l-8.7-6.9l-71.3-56c-2.9-2.3-7-2.3-9.9,0l-71.3,56l-8.7,6.9l-32,25.1c-3.5,2.7-4.3,7.7-1.6,11.2c2.7,3.5,7.7,4.3,11.2,1.6
		c0.1-0.1,0.2-0.1,0.3-0.2l19.1-15V352h-40c-4.4,0-8,3.6-8,8s3.6,8,8,8h256c4.4,0,8-3.6,8-8S388.4,352,384,352z M288,352h-64v-48h64
		V352z M328,352h-24v-56c0-4.4-3.6-8-8-8h-80c-4.4,0-8,3.6-8,8v56h-24V242.8l3-2.3l69-54.3l69,54.3l3,2.3V352z"/>
	<path class="st0" d="M40,96h8c4.4,0,8-3.6,8-8s-3.6-8-8-8h-8c-4.4,0-8,3.6-8,8S35.6,96,40,96z"/>
	<path class="st0" d="M72,96h8c4.4,0,8-3.6,8-8s-3.6-8-8-8h-8c-4.4,0-8,3.6-8,8S67.6,96,72,96z"/>
	<path class="st0" d="M104,96h8c4.4,0,8-3.6,8-8s-3.6-8-8-8h-8c-4.4,0-8,3.6-8,8S99.6,96,104,96z"/>
	<path class="st0" d="M440,416h-72c-4.4,0-8,3.6-8,8s3.6,8,8,8h72c4.4,0,8-3.6,8-8S444.4,416,440,416z"/>
	<path class="st0" d="M472,416h-8c-4.4,0-8,3.6-8,8s3.6,8,8,8h8c4.4,0,8-3.6,8-8S476.4,416,472,416z"/>
</g>
</svg>
