<?xml version="1.0" encoding="utf-8"?>
<!-- Generator: Adobe Illustrator 21.1.0, SVG Export Plug-In . SVG Version: 6.00 Build 0)  -->
<svg version="1.1" id="Capa_1" xmlns="http://www.w3.org/2000/svg" xmlns:xlink="http://www.w3.org/1999/xlink" x="0px" y="0px"
	 viewBox="0 0 400 400" style="enable-background:new 0 0 400 400;" xml:space="preserve">
<style type="text/css">
	.st0{fill:#0DDDC9;}
</style>
<g>
	<path class="st0" d="M306.5,103.2H93.5c-7.5,0-13.5,6-13.5,13.5v166.5c0,7.5,6,13.5,13.5,13.5h212.9c7.5,0,13.5-6,13.5-13.5V116.8
		C320,109.3,314,103.2,306.5,103.2z M312.3,283.2c0,3.2-2.6,5.8-5.8,5.8H93.5c-3.2,0-5.8-2.6-5.8-5.8v-149h224.5V283.2z
		 M312.3,126.5H87.7v-9.7c0-3.2,2.6-5.8,5.8-5.8h212.9c3.2,0,5.8,2.6,5.8,5.8V126.5z"/>
	<path class="st0" d="M261.9,246.5h-19.4v-46.8l9.2,7.3c1.6,1.4,4.1,1.1,5.5-0.5s1.1-4.1-0.5-5.5c0,0-0.1-0.1-0.1-0.1l-15.5-12.1
		l-4.2-3.3l-34.5-27.1c-1.4-1.1-3.4-1.1-4.8,0l-34.5,27.1l-4.2,3.3l-15.5,12.1c-1.7,1.3-2.1,3.7-0.8,5.4c1.3,1.7,3.7,2.1,5.4,0.8
		c0,0,0.1,0,0.1-0.1l9.2-7.3v46.8h-19.4c-2.1,0-3.9,1.7-3.9,3.9s1.7,3.9,3.9,3.9H262c2.1,0,3.9-1.7,3.9-3.9S264.1,246.5,261.9,246.5
		z M215.5,246.5h-31v-23.2h31V246.5z M234.8,246.5h-11.6v-27.1c0-2.1-1.7-3.9-3.9-3.9h-38.7c-2.1,0-3.9,1.7-3.9,3.9v27.1h-11.6
		v-52.8l1.5-1.1l33.4-26.3l33.4,26.3l1.5,1.1V246.5z"/>
	<path class="st0" d="M95.5,122.6h3.9c2.1,0,3.9-1.7,3.9-3.9c0-2.1-1.7-3.9-3.9-3.9h-3.9c-2.1,0-3.9,1.7-3.9,3.9
		C91.6,120.8,93.4,122.6,95.5,122.6z"/>
	<path class="st0" d="M111,122.6h3.9c2.1,0,3.9-1.7,3.9-3.9c0-2.1-1.7-3.9-3.9-3.9H111c-2.1,0-3.9,1.7-3.9,3.9
		C107.1,120.8,108.8,122.6,111,122.6z"/>
	<path class="st0" d="M126.5,122.6h3.9c2.1,0,3.9-1.7,3.9-3.9c0-2.1-1.7-3.9-3.9-3.9h-3.9c-2.1,0-3.9,1.7-3.9,3.9
		C122.6,120.8,124.3,122.6,126.5,122.6z"/>
	<path class="st0" d="M289,277.4h-34.8c-2.1,0-3.9,1.7-3.9,3.9s1.7,3.9,3.9,3.9H289c2.1,0,3.9-1.7,3.9-3.9S291.2,277.4,289,277.4z"
		/>
	<path class="st0" d="M304.5,277.4h-3.9c-2.1,0-3.9,1.7-3.9,3.9s1.7,3.9,3.9,3.9h3.9c2.1,0,3.9-1.7,3.9-3.9S306.6,277.4,304.5,277.4
		z"/>
</g>
</svg>
